<svg xmlns="http://www.w3.org/2000/svg" width="256" height="256" viewBox="0 0 96 96">
  <!-- JA2 Pecel Bakwan: a bakwan (vegetable fritter) in a scope reticle. Style B "Night Ops" (docs/ui/design-system.md). -->
  <circle cx="48" cy="48" r="44" fill="#241A0E" stroke="#9A7E4C" stroke-width="4"/>
  <circle cx="48" cy="48" r="32" fill="none" stroke="#6B5530" stroke-width="2" stroke-dasharray="4 3"/>
  <g stroke="#D8B25E" stroke-width="4" stroke-linecap="round">
    <line x1="48" y1="8" x2="48" y2="22"/>
    <line x1="48" y1="74" x2="48" y2="88"/>
    <line x1="8" y1="48" x2="22" y2="48"/>
    <line x1="74" y1="48" x2="88" y2="48"/>
  </g>
  <path d="M29 50 C29 39 38 36 46 37 C52 35 61 36 65 42 C69 47 67 58 58 61 C51 64 40 63 34 60 C30 58 29 54 29 50 Z" fill="#D8B25E"/>
  <circle cx="40" cy="47" r="3" fill="#241A0E"/>
  <circle cx="53" cy="53" r="2.5" fill="#241A0E"/>
  <circle cx="51" cy="43" r="2" fill="#241A0E"/>
  <circle cx="44" cy="56" r="1.8" fill="#241A0E"/>
  <circle cx="59" cy="48" r="1.6" fill="#241A0E"/>
</svg>
